<svg width="250" height="250" viewBox="0 0 250 250" fill="none" xmlns="http://www.w3.org/2000/svg">
  <!-- Extract the causal graph icon from the full logo -->
  <path fill-rule="evenodd" clip-rule="evenodd" d="M79.018 43.7027C79.018 20.0541 98.189 0.882889 121.838 0.882889C145.487 0.882889 164.658 20.0541 164.658 43.7027C164.658 67.3513 145.487 86.5225 121.838 86.5225C98.189 86.5225 79.018 67.3513 79.018 43.7027Z" fill="#016565"/>
  <path fill-rule="evenodd" clip-rule="evenodd" d="M121.838 1.26143C98.3981 1.26143 79.3966 20.2632 79.3966 43.7027C79.3966 67.1422 98.3981 86.144 121.838 86.144C145.278 86.144 164.279 67.1422 164.279 43.7027C164.279 20.2632 145.278 1.26143 121.838 1.26143ZM78.1351 43.7027C78.1351 19.5665 97.7014 0 121.838 0C145.974 0 165.541 19.5665 165.541 43.7027C165.541 67.8389 145.974 87.4054 121.838 87.4054C97.7014 87.4054 78.1351 67.8389 78.1351 43.7027Z" fill="#016565"/>
  <path fill-rule="evenodd" clip-rule="evenodd" d="M90.0541 43.482C90.0541 25.8064 104.284 11.4775 121.838 11.4775C139.392 11.4775 153.622 25.8064 153.622 43.482C153.622 61.1575 139.392 75.4865 121.838 75.4865C104.284 75.4865 90.0541 61.1575 90.0541 43.482Z" fill="#F5F5F5"/>
  <path fill-rule="evenodd" clip-rule="evenodd" d="M121.838 12.2964C104.493 12.2964 90.4315 26.3575 90.4315 43.7027C90.4315 61.0479 104.493 75.109 121.838 75.109C139.183 75.109 153.244 61.0479 153.244 43.7027C153.244 26.3575 139.183 12.2964 121.838 12.2964ZM89.1712 43.7027C89.1712 25.6615 103.797 11.036 121.838 11.036C139.879 11.036 154.505 25.6615 154.505 43.7027C154.505 61.744 139.879 76.3694 121.838 76.3694C103.797 76.3694 89.1712 61.744 89.1712 43.7027Z" fill="#F5F5F5"/>
  <path fill-rule="evenodd" clip-rule="evenodd" d="M90.7567 74.1622L100.207 81.6604L55.8021 137.73L46.3513 130.234L90.7567 74.1622Z" fill="#016565"/>
  <path fill-rule="evenodd" clip-rule="evenodd" d="M90.6542 73.2793L101.09 81.5593L55.9048 138.613L45.4685 130.336L90.6542 73.2793ZM90.8586 75.0478L47.2355 130.131L55.7003 136.844L99.3232 81.7638L90.8586 75.0478Z" fill="#016565"/>
  <path fill-rule="evenodd" clip-rule="evenodd" d="M0.882889 158.257C0.882889 140.826 15.0141 126.694 32.446 126.694C49.8778 126.694 64.009 140.826 64.009 158.257C64.009 175.688 49.8778 189.82 32.446 189.82C15.0141 189.82 0.882889 175.688 0.882889 158.257Z" fill="#016565"/>
  <path fill-rule="evenodd" clip-rule="evenodd" d="M32.2252 127.07C15.1231 127.07 1.25924 140.935 1.25924 158.036C1.25924 175.137 15.1231 189.002 32.2252 189.002C49.3273 189.002 63.1912 175.137 63.1912 158.036C63.1912 140.935 49.3273 127.07 32.2252 127.07ZM0 158.036C0 140.239 14.4276 125.811 32.2252 125.811C50.0228 125.811 64.4505 140.239 64.4505 158.036C64.4505 175.833 50.0228 190.261 32.2252 190.261C14.4276 190.261 0 175.833 0 158.036Z" fill="#016565"/>
  <path fill-rule="evenodd" clip-rule="evenodd" d="M90.4955 196.662C90.4955 179.231 104.627 165.099 122.059 165.099C139.49 165.099 153.622 179.231 153.622 196.662C153.622 214.093 139.49 228.225 122.059 228.225C104.627 228.225 90.4955 214.093 90.4955 196.662Z" fill="#016565"/>
  <path fill-rule="evenodd" clip-rule="evenodd" d="M122.059 165.917C104.834 165.917 90.8751 179.784 90.8751 196.883C90.8751 213.982 104.834 227.849 122.059 227.849C139.283 227.849 153.242 213.982 153.242 196.883C153.242 179.784 139.283 165.917 122.059 165.917ZM89.6126 196.883C89.6126 179.084 104.142 164.658 122.059 164.658C139.975 164.658 154.505 179.084 154.505 196.883C154.505 214.682 139.975 229.108 122.059 229.108C104.142 229.108 89.6126 214.682 89.6126 196.883Z" fill="#016565"/>
  <path d="M128.459 97.5586H116.541V109.477H128.459V97.5586Z" fill="#016565"/>
  <path fill-rule="evenodd" clip-rule="evenodd" d="M115.658 97.1171H128.901V109.919H115.658V97.1171ZM116.933 98.3502V108.686H127.625V98.3502H116.933Z" fill="#016565"/>
  <path d="M128.459 120.513H116.541V132.432H128.459V120.513Z" fill="#016565"/>
  <path fill-rule="evenodd" clip-rule="evenodd" d="M115.658 120.072H128.901V132.874H115.658V120.072ZM116.933 121.305V131.641H127.625V121.305H116.933Z" fill="#016565"/>
  <path d="M128.459 142.144H116.541V153.622H128.459V142.144Z" fill="#016565"/>
  <path fill-rule="evenodd" clip-rule="evenodd" d="M115.658 141.261H128.901V154.505H115.658V141.261ZM116.933 142.537V153.229H127.625V142.537H116.933Z" fill="#016565"/>
  <path fill-rule="evenodd" clip-rule="evenodd" d="M180.991 158.257C180.991 140.826 195.122 126.694 212.554 126.694C229.986 126.694 244.117 140.826 244.117 158.257C244.117 175.688 229.986 189.82 212.554 189.82C195.122 189.82 180.991 175.688 180.991 158.257Z" fill="#016565"/>
  <path fill-rule="evenodd" clip-rule="evenodd" d="M212.554 127.07C195.329 127.07 181.371 140.937 181.371 158.036C181.371 175.135 195.329 189.002 212.554 189.002C229.779 189.002 243.738 175.135 243.738 158.036C243.738 140.937 229.779 127.07 212.554 127.07ZM180.108 158.036C180.108 140.237 194.637 125.811 212.554 125.811C230.471 125.811 245 140.237 245 158.036C245 175.835 230.471 190.261 212.554 190.261C194.637 190.261 180.108 175.835 180.108 158.036Z" fill="#016565"/>
  <path fill-rule="evenodd" clip-rule="evenodd" d="M196.883 129.234L187.55 136.847L142.586 81.3331L151.918 73.7207L196.883 129.234Z" fill="#016565"/>
  <path fill-rule="evenodd" clip-rule="evenodd" d="M152.009 72.8378L197.766 129.324L187.46 137.73L141.703 81.2435L152.009 72.8378ZM143.467 81.4263L187.642 135.959L196.001 129.141L151.827 74.6084L143.467 81.4263Z" fill="#016565"/>
  <path fill-rule="evenodd" clip-rule="evenodd" d="M11.9189 158.036C11.9189 146.822 20.9115 137.73 32.0045 137.73C43.0975 137.73 52.0901 146.822 52.0901 158.036C52.0901 169.25 43.0975 178.342 32.0045 178.342C20.9115 178.342 11.9189 169.25 11.9189 158.036Z" fill="#F5F5F5"/>
  <path fill-rule="evenodd" clip-rule="evenodd" d="M32.2252 138.543C21.4595 138.543 12.7322 147.271 12.7322 158.036C12.7322 168.801 21.4595 177.529 32.2252 177.529C42.991 177.529 51.7183 168.801 51.7183 158.036C51.7183 147.271 42.991 138.543 32.2252 138.543ZM11.4775 158.036C11.4775 146.578 20.7665 137.288 32.2252 137.288C43.6839 137.288 52.973 146.578 52.973 158.036C52.973 169.494 43.6839 178.784 32.2252 178.784C20.7665 178.784 11.4775 169.494 11.4775 158.036Z" fill="#F5F5F5"/>
  <path fill-rule="evenodd" clip-rule="evenodd" d="M101.973 196.662C101.973 185.57 110.966 176.577 122.059 176.577C133.152 176.577 142.144 185.57 142.144 196.662C142.144 207.754 133.152 216.748 122.059 216.748C110.966 216.748 101.973 207.754 101.973 196.662Z" fill="#F5F5F5"/>
  <path fill-rule="evenodd" clip-rule="evenodd" d="M122.059 177.39C111.178 177.39 102.358 186.118 102.358 196.883C102.358 207.648 111.178 216.376 122.059 216.376C132.939 216.376 141.759 207.648 141.759 196.883C141.759 186.118 132.939 177.39 122.059 177.39ZM101.09 196.883C101.09 185.425 110.478 176.135 122.059 176.135C133.639 176.135 143.027 185.425 143.027 196.883C143.027 208.341 133.639 217.631 122.059 217.631C110.478 217.631 101.09 208.341 101.09 196.883Z" fill="#F5F5F5"/>
  <path fill-rule="evenodd" clip-rule="evenodd" d="M192.468 158.036C192.468 146.822 201.461 137.73 212.554 137.73C223.647 137.73 232.64 146.822 232.64 158.036C232.64 169.25 223.647 178.342 212.554 178.342C201.461 178.342 192.468 169.25 192.468 158.036Z" fill="#F5F5F5"/>
  <path fill-rule="evenodd" clip-rule="evenodd" d="M212.775 138.543C202.009 138.543 193.282 147.271 193.282 158.036C193.282 168.801 202.009 177.529 212.775 177.529C223.541 177.529 232.268 168.801 232.268 158.036C232.268 147.271 223.541 138.543 212.775 138.543ZM192.027 158.036C192.027 146.578 201.316 137.288 212.775 137.288C224.233 137.288 233.523 146.578 233.523 158.036C233.523 169.494 224.233 178.784 212.775 178.784C201.316 178.784 192.027 169.494 192.027 158.036Z" fill="#F5F5F5"/>
</svg>