<?xml version="1.0" encoding="UTF-8"?>
<!-- 16x16 favicon source -->
<svg width="16" height="16" viewBox="0 0 16 16" xmlns="http://www.w3.org/2000/svg">
  <rect width="16" height="16" fill="white"/>
  <circle cx="8" cy="3" r="2.5" fill="#016565"/>
  <circle cx="8" cy="3" r="1.5" fill="white"/>
  <circle cx="2" cy="10" r="1.8" fill="#016565"/>
  <circle cx="2" cy="10" r="1" fill="white"/>
  <circle cx="8" cy="13" r="1.8" fill="#016565"/>
  <circle cx="8" cy="13" r="1" fill="white"/>
  <circle cx="14" cy="10" r="1.8" fill="#016565"/>
  <circle cx="14" cy="10" r="1" fill="white"/>
  <line x1="6.5" y1="5" x2="3" y2="8.5" stroke="#016565" stroke-width="0.8"/>
  <line x1="9.5" y1="5" x2="13" y2="8.5" stroke="#016565" stroke-width="0.8"/>
  <rect x="7.5" y="6.5" width="1" height="1" fill="#016565"/>
  <rect x="7.5" y="8.5" width="1" height="1" fill="#016565"/>
  <rect x="7.5" y="10.5" width="1" height="1" fill="#016565"/>
</svg>

<!-- 32x32 favicon source -->
<svg width="32" height="32" viewBox="0 0 32 32" xmlns="http://www.w3.org/2000/svg">
  <rect width="32" height="32" fill="white"/>
  <circle cx="16" cy="6" r="5" fill="#016565"/>
  <circle cx="16" cy="6" r="3" fill="white"/>
  <circle cx="4" cy="20" r="3.5" fill="#016565"/>
  <circle cx="4" cy="20" r="2" fill="white"/>
  <circle cx="16" cy="26" r="3.5" fill="#016565"/>
  <circle cx="16" cy="26" r="2" fill="white"/>
  <circle cx="28" cy="20" r="3.5" fill="#016565"/>
  <circle cx="28" cy="20" r="2" fill="white"/>
  <line x1="13" y1="10" x2="6" y2="17" stroke="#016565" stroke-width="1.5"/>
  <line x1="19" y1="10" x2="26" y2="17" stroke="#016565" stroke-width="1.5"/>
  <rect x="15" y="13" width="2" height="2" fill="#016565"/>
  <rect x="15" y="17" width="2" height="2" fill="#016565"/>
  <rect x="15" y="21" width="2" height="2" fill="#016565"/>
</svg>