<svg width="400" height="400" viewBox="0 0 400 400" fill="none" xmlns="http://www.w3.org/2000/svg">
  <rect width="400" height="400" fill="#f5f5f5"/>
  <circle cx="200" cy="150" r="80" fill="#e0e0e0"/>
  <rect x="120" y="250" width="160" height="20" rx="10" fill="#e0e0e0"/>
  <rect x="140" y="280" width="120" height="15" rx="7.5" fill="#e0e0e0"/>
  <path d="M200 190C233.137 190 260 163.137 260 130C260 96.8629 233.137 70 200 70C166.863 70 140 96.8629 140 130C140 163.137 166.863 190 200 190Z" fill="#d0d0d0"/>
  <path d="M118 320C118 275.817 153.817 240 198 240H202C246.183 240 282 275.817 282 320V340C282 351.046 273.046 360 262 360H138C126.954 360 118 351.046 118 340V320Z" fill="#d0d0d0"/>
</svg>