<svg width="650" height="80" viewBox="270 70 650 80" fill="none" xmlns="http://www.w3.org/2000/svg">
<!-- Kausalyze text -->
<path d="M290.342 79.6519C291.115 80.4279 291.397 83.814 291.537 94.2543C291.608 101.802 291.959 108.081 292.241 108.222C292.803 108.574 295.476 106.035 310.949 89.9512C316.787 83.8845 321.992 78.8054 322.484 78.8054C326.141 78.4527 334.159 78.3116 335.214 78.5938C337.324 79.2287 336.551 81.7682 333.104 85.507C327.407 91.7853 313.059 107.164 307.503 113.089C296.109 125.081 292.733 128.961 292.1 130.725C291.678 131.783 291.397 135.381 291.397 138.837C291.397 144.34 291.256 145.257 290.06 145.891C288.161 146.879 280.636 146.809 279.581 145.75C278.948 145.116 278.737 136.791 278.737 112.666V80.3574L280.354 79.2287C282.253 77.8178 288.865 78.1 290.342 79.6519ZM387.05 79.7225C387.824 80.569 388.457 81.6977 388.457 82.262C388.457 82.8264 388.949 84.2372 389.512 85.4364C390.637 87.976 394.646 98.9101 397.67 107.798C398.796 111.114 400.132 114.571 400.695 115.558C401.187 116.546 402.031 118.874 402.523 120.849C403.016 122.753 404.211 126.14 405.196 128.256C406.884 132.065 409.135 138.484 410.26 142.858C410.612 144.269 410.541 145.327 410.049 145.821C409.627 146.244 406.673 146.597 403.438 146.597H397.6L396.545 144.269C395.982 143.07 394.435 138.978 393.028 135.31C391.622 131.642 389.723 126.563 388.668 124.023C386.698 119.085 386.065 117.392 381.072 102.86C379.243 97.6403 377.344 92.3496 376.852 91.2209C374.39 85.4364 373.124 79.6519 374.179 78.6643C374.39 78.3822 377.063 78.1705 380.087 78.1705C384.87 78.1705 385.784 78.3822 387.05 79.7225ZM433.329 79.2992C434.877 80.3574 434.877 80.4985 434.877 101.309C434.877 121.766 434.947 122.33 436.565 125.787C438.042 129.102 442.191 133.194 444.02 133.194C445.286 133.194 445.919 136.227 445.567 141.095C445.356 144.41 444.934 145.891 444.231 146.244C443.598 146.456 441.136 145.962 438.745 145.116C432.415 142.999 427.773 138.696 424.467 131.924L421.865 126.492L421.654 104.977C421.513 93.1961 421.584 82.4736 421.865 81.2039C422.287 78.7349 423.061 78.4527 428.547 78.2411C430.446 78.2411 432.415 78.5938 433.329 79.2992ZM478.343 80.2868C479.679 82.8969 479.116 121.625 477.569 126.21C474.685 134.957 470.114 141.165 464.839 143.422C463.643 143.916 461.392 144.904 459.915 145.539C455.836 147.373 454.992 146.526 454.711 140.389C454.5 134.957 454.359 135.24 459.353 131.289C460.619 130.302 462.377 128.185 463.221 126.563C464.698 123.812 464.768 122.612 465.12 101.802C465.331 89.7395 465.753 79.5109 466.034 79.0171C466.456 78.3822 468.215 78.1705 472.013 78.3116C476.936 78.5233 477.499 78.6643 478.343 80.2868ZM546.918 79.4403C548.606 81.345 548.817 88.2581 547.129 90.0923C546.003 91.362 544.808 91.5031 533.836 91.7147C522.231 91.9264 521.598 91.9969 518.573 93.831C512.314 97.4992 509.078 102.719 508.234 110.62C507.672 116.264 506.406 117.251 499.935 116.828C497.403 116.687 495.012 116.193 494.519 115.699C492.691 113.865 494.379 102.649 497.544 96.3705C499.583 92.3496 506.265 85.5775 510.696 83.038C516.534 79.6519 523.356 78.3822 535.524 78.2411C544.597 78.1705 545.933 78.3116 546.918 79.4403ZM600.16 79.5814C600.934 80.3574 601.567 81.5566 601.567 82.1915C601.567 82.8969 602.059 84.3078 602.551 85.3659C603.114 86.4946 604.38 89.669 605.365 92.4202C608.67 101.943 613.383 115.135 616.688 124.023C621.963 138.273 623.511 142.999 623.229 144.692C623.018 146.174 622.596 146.244 616.97 146.456C612.679 146.597 610.71 146.385 610.218 145.75C609.092 144.198 602.27 126.563 596.292 109.562C594.252 103.707 591.157 94.9597 589.399 90.0923C587.43 84.8016 586.304 80.569 586.586 79.7225C586.937 78.3116 587.43 78.1705 592.845 78.1705C597.839 78.1705 598.964 78.3822 600.16 79.5814ZM650.73 79.3698C652.207 80.6395 652.207 81.0628 652.207 106.247C652.277 120.284 652.418 132.277 652.699 132.841C652.98 133.758 655.653 133.899 668.665 133.899C687.444 133.899 687.022 133.758 687.022 140.601C687.022 143.916 686.67 145.468 685.967 145.891C684.349 146.95 640.742 146.809 639.687 145.75C639.054 145.116 638.843 136.791 638.843 112.666C638.843 84.2372 638.984 80.2868 639.969 79.2992C641.516 77.6767 648.76 77.7473 650.73 79.3698ZM716.351 80.0752C717.335 81.2039 719.938 85.0837 722.188 88.7519C724.439 92.4202 727.674 97.6403 729.503 100.391C731.261 103.072 733.09 105.823 733.442 106.458C733.864 107.164 735.763 110.197 737.662 113.23L741.178 118.733L741.389 131.642C741.53 140.883 741.389 144.904 740.756 145.609C739.701 146.879 728.167 147.02 726.901 145.75C726.338 145.186 726.057 141.165 726.057 132.277C726.057 120.143 725.986 119.579 724.298 116.546C722.47 113.23 711.427 96.0884 709.106 92.9845C705.871 88.5403 701.37 80.1457 701.721 79.2287C702.003 78.3822 703.48 78.1705 708.333 78.1705C714.17 78.1705 714.663 78.2411 716.351 80.0752ZM765.865 79.1581C766.358 80.4985 764.81 83.4612 758.48 92.914C748.493 107.798 746.805 110.197 745.961 110.479C744.836 110.832 740.475 106.105 738.998 103.002L737.873 100.603L742.726 93.6194C745.328 89.7395 748.352 85.2954 749.407 83.7434C753.065 78.2411 753.135 78.1705 759.606 78.1705C764.037 78.1705 765.584 78.4527 765.865 79.1581ZM832.26 79.5814C833.315 80.6395 833.667 81.9093 833.667 84.731C833.667 91.4326 835.495 91.0093 805.604 91.0093C784.433 91.0093 779.229 90.7977 778.736 90.0217C777.892 88.6814 777.963 81.2039 778.807 79.5109C779.51 78.2411 780.565 78.1705 805.182 78.1705C829.939 78.1705 830.924 78.2411 832.26 79.5814ZM901.257 79.6519C902.382 81.7682 901.749 90.0923 900.413 90.9388C899.85 91.2915 888.949 91.5736 875.937 91.5736C848.507 91.5736 849.843 91.9264 849.843 85.0132C849.843 77.7473 848.296 78.1705 876.289 78.1705C900.202 78.1705 900.413 78.1705 901.257 79.6519ZM369.467 97.1465C371.014 100.18 373.687 108.433 373.687 110.479C373.687 111.678 372.913 114.5 371.999 116.757C371.084 119.015 368.623 124.799 366.653 129.667C364.684 134.534 362.574 139.472 362.011 140.742C361.449 141.941 361.027 143.14 361.027 143.493C361.027 143.775 360.534 144.622 359.831 145.327C358.917 146.315 357.651 146.597 353.642 146.597C345.553 146.597 345.483 146.526 350.195 135.31C352.376 130.09 354.767 124.094 355.47 122.048C356.244 120.002 357.158 117.745 357.44 117.11C357.791 116.475 358.565 114.641 359.128 113.089C359.761 111.537 361.308 107.587 362.644 104.271C363.981 100.956 365.247 97.7109 365.458 97.0054C366.02 95.3829 368.552 95.4535 369.467 97.1465ZM583.139 98.0636C587.641 109.421 587.711 109.703 586.375 113.653C585.742 115.699 584.757 118.098 584.265 119.085C583.702 120.073 582.155 123.671 580.748 127.127C579.412 130.584 577.935 133.899 577.653 134.534C577.302 135.169 576.528 137.426 575.825 139.543C573.996 145.68 572.73 146.597 566.681 146.597C561.336 146.597 559.367 146.174 559.367 145.045C559.367 144.34 565.486 128.467 566.259 127.198C566.541 126.774 567.385 124.588 568.229 122.26C570.057 117.392 575.051 104.906 576.528 101.802C577.02 100.603 577.794 98.8395 578.216 97.7109C579.412 94.8891 582.014 95.1008 583.139 98.0636ZM823.82 98.2752C824.805 99.4744 824.664 99.686 819.67 105.964C817.49 108.645 814.958 111.819 813.973 113.019C813.059 114.218 810.668 117.11 808.698 119.438C802.931 126.281 797.797 133.123 797.797 134.04C797.797 134.322 805.393 134.605 814.606 134.605C833.948 134.605 833.667 134.534 833.667 140.319C833.667 147.091 835.917 146.597 805.322 146.597C785.277 146.597 778.174 146.385 777.541 145.75C777.048 145.257 776.697 143.07 776.697 140.812C776.697 137.356 776.978 136.439 778.666 134.464C781.198 131.501 782.183 130.302 789.779 120.849C799.766 108.292 802.017 105.541 805.744 101.238L809.261 97.2171H816.083C821.218 97.2171 823.187 97.4992 823.82 98.2752ZM896.263 107.022C897.248 108.927 897.178 116.475 896.123 117.533C895.49 118.168 889.441 118.38 873.264 118.38C848.226 118.38 849.843 118.803 849.843 112.031C849.843 105.259 848.226 105.682 873.405 105.682C894.575 105.682 895.56 105.753 896.263 107.022ZM546.636 110.338C548.184 111.467 548.254 111.89 547.902 116.052C546.496 130.725 536.86 141.588 521.738 145.539C517.026 146.738 496.418 147.02 494.66 145.891C493.886 145.468 493.605 143.987 493.605 141.165C493.605 134.322 493.183 134.605 504.718 134.605C518.433 134.605 523.848 132.7 529.334 125.998C531.655 123.106 532.429 121.131 533.906 113.795C534.258 111.89 534.961 110.691 536.157 110.126C538.689 108.857 544.667 108.998 546.636 110.338ZM323.891 126.633C328.251 132.277 332.823 138.061 334.019 139.472C336.762 142.576 337.606 145.116 336.34 145.962C334.581 147.02 324.242 146.738 322.554 145.539C321.288 144.622 315.943 138.132 308.066 127.833C307.292 126.845 306.94 125.646 307.222 124.799C307.784 123.036 314.044 116.264 315.169 116.264C315.591 116.264 319.53 120.919 323.891 126.633ZM899.78 134.816C901.257 135.592 901.538 136.227 901.609 139.543C901.679 141.659 901.398 144.128 901.116 145.045L900.483 146.597H875.937C855.681 146.597 851.25 146.456 850.617 145.609C850.125 144.974 849.843 142.858 849.984 140.178C850.195 136.227 850.406 135.592 851.953 134.816C854.485 133.547 897.248 133.547 899.78 134.816Z" fill="#016565"/>
</svg>