<svg width="555" height="519" viewBox="0 0 555 519" fill="none" xmlns="http://www.w3.org/2000/svg">
<path fill-rule="evenodd" clip-rule="evenodd" d="M179 99C179 45.4287 222.428 2 276 2C329.572 2 373 45.4287 373 99C373 152.571 329.572 196 276 196C222.428 196 179 152.571 179 99Z" fill="#BEDFC8"/>
<path fill-rule="evenodd" clip-rule="evenodd" d="M276 2.85752C222.902 2.85752 179.858 45.9023 179.858 99C179.858 152.098 222.902 195.142 276 195.142C329.098 195.142 372.142 152.098 372.142 99C372.142 45.9023 329.098 2.85752 276 2.85752ZM177 99C177 44.3242 221.324 0 276 0C330.676 0 375 44.3242 375 99C375 153.676 330.676 198 276 198C221.324 198 177 153.676 177 99Z" fill="#BEDFC8"/>
<path fill-rule="evenodd" clip-rule="evenodd" d="M204 98.5C204 58.4595 236.236 26 276 26C315.764 26 348 58.4595 348 98.5C348 138.541 315.764 171 276 171C236.236 171 204 138.541 204 98.5Z" fill="#F5F5F5"/>
<path fill-rule="evenodd" clip-rule="evenodd" d="M276 27.8551C236.708 27.8551 204.855 59.7079 204.855 99C204.855 138.292 236.708 170.145 276 170.145C315.292 170.145 347.145 138.292 347.145 99C347.145 59.7079 315.292 27.8551 276 27.8551ZM202 99C202 58.131 235.131 25 276 25C316.869 25 350 58.131 350 99C350 139.869 316.869 173 276 173C235.131 173 202 139.869 202 99Z" fill="#F5F5F5"/>
<path fill-rule="evenodd" clip-rule="evenodd" d="M205.592 168L227 184.986L126.409 312L105 295.02L205.592 168Z" fill="#BEDFC8"/>
<path fill-rule="evenodd" clip-rule="evenodd" d="M205.359 166L229 184.757L126.641 314L103 295.25L205.359 166ZM205.822 170.006L107.003 294.786L126.178 309.994L224.997 185.22L205.822 170.006Z" fill="#BEDFC8"/>
<path fill-rule="evenodd" clip-rule="evenodd" d="M2 358.5C2 319.013 34.0115 287 73.5 287C112.989 287 145 319.013 145 358.5C145 397.987 112.989 430 73.5 430C34.0115 430 2 397.987 2 358.5Z" fill="#BEDFC8"/>
<path fill-rule="evenodd" clip-rule="evenodd" d="M73 287.853C34.2585 287.853 2.85257 319.26 2.85257 358C2.85257 396.74 34.2585 428.147 73 428.147C111.741 428.147 143.147 396.74 143.147 358C143.147 319.26 111.741 287.853 73 287.853ZM0 358C0 317.685 32.683 285 73 285C113.317 285 146 317.685 146 358C146 398.315 113.317 431 73 431C32.683 431 0 398.315 0 358Z" fill="#BEDFC8"/>
<path fill-rule="evenodd" clip-rule="evenodd" d="M205 445.5C205 406.013 237.012 374 276.5 374C315.988 374 348 406.013 348 445.5C348 484.987 315.988 517 276.5 517C237.012 517 205 484.987 205 445.5Z" fill="#BEDFC8"/>
<path fill-rule="evenodd" clip-rule="evenodd" d="M276.5 375.853C237.481 375.853 205.86 407.266 205.86 446C205.86 484.734 237.481 516.147 276.5 516.147C315.519 516.147 347.14 484.734 347.14 446C347.14 407.266 315.519 375.853 276.5 375.853ZM203 446C203 405.679 235.913 373 276.5 373C317.087 373 350 405.679 350 446C350 486.321 317.087 519 276.5 519C235.913 519 203 486.321 203 446Z" fill="#BEDFC8"/>
<path d="M291 221H264V248H291V221Z" fill="#BEDFC8"/>
<path fill-rule="evenodd" clip-rule="evenodd" d="M262 220H292V249H262V220ZM264.89 222.793V246.207H289.11V222.793H264.89Z" fill="#BEDFC8"/>
<path d="M291 273H264V300H291V273Z" fill="#BEDFC8"/>
<path fill-rule="evenodd" clip-rule="evenodd" d="M262 272H292V301H262V272ZM264.89 274.793V298.207H289.11V274.793H264.89Z" fill="#BEDFC8"/>
<path d="M291 322H264V348H291V322Z" fill="#BEDFC8"/>
<path fill-rule="evenodd" clip-rule="evenodd" d="M262 320H292V350H262V320ZM264.89 322.89V347.11H289.11V322.89H264.89Z" fill="#BEDFC8"/>
<path fill-rule="evenodd" clip-rule="evenodd" d="M410 358.5C410 319.013 442.012 287 481.5 287C520.989 287 553 319.013 553 358.5C553 397.987 520.989 430 481.5 430C442.012 430 410 397.987 410 358.5Z" fill="#BEDFC8"/>
<path fill-rule="evenodd" clip-rule="evenodd" d="M481.5 287.853C442.481 287.853 410.86 319.266 410.86 358C410.86 396.734 442.481 428.147 481.5 428.147C520.52 428.147 552.14 396.734 552.14 358C552.14 319.266 520.52 287.853 481.5 287.853ZM408 358C408 317.679 440.913 285 481.5 285C522.088 285 555 317.679 555 358C555 398.321 522.088 431 481.5 431C440.913 431 408 398.321 408 358Z" fill="#BEDFC8"/>
<path fill-rule="evenodd" clip-rule="evenodd" d="M446 292.756L424.859 310L323 184.244L344.141 167L446 292.756Z" fill="#BEDFC8"/>
<path fill-rule="evenodd" clip-rule="evenodd" d="M344.346 165L448 292.959L424.654 312L321 184.041L344.346 165ZM324.997 184.456L425.066 307.989L444.003 292.544L343.934 169.011L324.997 184.456Z" fill="#BEDFC8"/>
<path fill-rule="evenodd" clip-rule="evenodd" d="M27 358C27 332.597 47.371 312 72.5 312C97.629 312 118 332.597 118 358C118 383.403 97.629 404 72.5 404C47.371 404 27 383.403 27 358Z" fill="#F5F5F5"/>
<path fill-rule="evenodd" clip-rule="evenodd" d="M73 313.842C48.6123 313.842 28.8422 333.614 28.8422 358C28.8422 382.386 48.6123 402.158 73 402.158C97.3877 402.158 117.158 382.386 117.158 358C117.158 333.614 97.3877 313.842 73 313.842ZM26 358C26 332.044 47.0425 311 73 311C98.9575 311 120 332.044 120 358C120 383.956 98.9575 405 73 405C47.0425 405 26 383.956 26 358Z" fill="#F5F5F5"/>
<path fill-rule="evenodd" clip-rule="evenodd" d="M231 445.5C231 420.373 251.371 400 276.5 400C301.629 400 322 420.373 322 445.5C322 470.627 301.629 491 276.5 491C251.371 491 231 470.627 231 445.5Z" fill="#F5F5F5"/>
<path fill-rule="evenodd" clip-rule="evenodd" d="M276.5 401.842C251.853 401.842 231.872 421.614 231.872 446C231.872 470.386 251.853 490.158 276.5 490.158C301.147 490.158 321.128 470.386 321.128 446C321.128 421.614 301.147 401.842 276.5 401.842ZM229 446C229 420.044 250.266 399 276.5 399C302.734 399 324 420.044 324 446C324 471.956 302.734 493 276.5 493C250.266 493 229 471.956 229 446Z" fill="#F5F5F5"/>
<path fill-rule="evenodd" clip-rule="evenodd" d="M436 358C436 332.597 456.371 312 481.5 312C506.629 312 527 332.597 527 358C527 383.403 506.629 404 481.5 404C456.371 404 436 383.403 436 358Z" fill="#F5F5F5"/>
<path fill-rule="evenodd" clip-rule="evenodd" d="M482 313.842C457.612 313.842 437.842 333.614 437.842 358C437.842 382.386 457.612 402.158 482 402.158C506.388 402.158 526.158 382.386 526.158 358C526.158 333.614 506.388 313.842 482 313.842ZM435 358C435 332.044 456.043 311 482 311C507.957 311 529 332.044 529 358C529 383.956 507.957 405 482 405C456.043 405 435 383.956 435 358Z" fill="#F5F5F5"/>
</svg>
